<?xml version="1.0" encoding="UTF-8" standalone="no"?>
<!-- Created with Inkscape (http://www.inkscape.org/) -->

<svg
   xmlns:dc="http://purl.org/dc/elements/1.1/"
   xmlns:cc="http://creativecommons.org/ns#"
   xmlns:rdf="http://www.w3.org/1999/02/22-rdf-syntax-ns#"
   xmlns:svg="http://www.w3.org/2000/svg"
   xmlns="http://www.w3.org/2000/svg"
   xmlns:sodipodi="http://sodipodi.sourceforge.net/DTD/sodipodi-0.dtd"
   xmlns:inkscape="http://www.inkscape.org/namespaces/inkscape"
   width="300"
   height="350"
   viewBox="0 0 79.374999 92.60417"
   version="1.1"
   id="svg8"
   inkscape:version="0.92.1 r15371"
   sodipodi:docname="face.svg">
  <defs
     id="defs2" />
  <sodipodi:namedview
     id="base"
     pagecolor="#ffffff"
     bordercolor="#666666"
     borderopacity="1.0"
     inkscape:pageopacity="0.0"
     inkscape:pageshadow="2"
     inkscape:zoom="5.6568542"
     inkscape:cx="112.08988"
     inkscape:cy="230.95313"
     inkscape:document-units="mm"
     inkscape:current-layer="layer1"
     showgrid="false"
     units="px"
     inkscape:snap-global="false"
     inkscape:window-width="1920"
     inkscape:window-height="1001"
     inkscape:window-x="-9"
     inkscape:window-y="-9"
     inkscape:window-maximized="1" />
  <metadata
     id="metadata5">
    <rdf:RDF>
      <cc:Work
         rdf:about="">
        <dc:format>image/svg+xml</dc:format>
        <dc:type
           rdf:resource="http://purl.org/dc/dcmitype/StillImage" />
        <dc:title></dc:title>
      </cc:Work>
    </rdf:RDF>
  </metadata>
  <g
     inkscape:label="Layer 1"
     inkscape:groupmode="layer"
     id="layer1"
     transform="translate(0,-204.39581)">
    <path
       style="fill:none;stroke:#000000;stroke-width:0.26458332px;stroke-linecap:butt;stroke-linejoin:miter;stroke-opacity:1"
       d="m 34.043445,232.33266 -0.05067,-1.92212 0.571149,1.80597 0.08513,-1.82213 0.34409,1.65489 0.08513,-1.82213 0.424437,1.93958 0.1873,-2.00464 0.371168,2.07755 0.334017,-2.13826 0.317897,2.21555 0.334017,-2.13826 0.04848,1.96884 0.707786,-2.1208 -0.04496,1.96447 0.601247,-1.84484 0.241917,1.83741 0.414362,-1.85357 0.184282,2.06884 0.561075,-1.98719 -4.25e-4,2.01338 0.456719,-1.75795 -0.03405,1.73087 0.699055,-1.93391 -0.136216,1.91338 0.543612,-1.61341 0.05503,1.82868 0.703421,-2.02736 -0.14713,2.14699 0.745776,-1.93173 0.05067,1.92212 0.543612,-1.61341 0.108302,1.69069"
       id="path4523"
       inkscape:connector-curvature="0" />
    <path
       style="fill:none;stroke:#000000;stroke-width:0.26458332px;stroke-linecap:butt;stroke-linejoin:miter;stroke-opacity:1"
       d="m 16.604119,232.45439 -0.187088,-1.6838 0.608038,1.63702 v -1.87088 l 0.561266,1.73057 0.04677,-1.6838 0.701582,1.87089 -0.04677,-2.29184 0.701583,2.19829 -0.04677,-2.05797 0.514493,1.91766 0.140317,-2.10475 0.467721,2.0112 0.327406,-2.0112 0.327405,1.91766 0.280633,-1.91766 0.187089,2.19829 0.374177,-1.91766 0.233861,1.73057 0.327405,-1.91766 0.327405,2.10475 0.374177,-2.05798 0.374178,2.05798 0.374177,-2.05798 0.233861,2.1983 0.467722,-2.15152 0.09354,2.0112 0.374177,-1.82412 0.140317,1.82412 0.561266,-1.82412 0.187088,2.10475 0.42095,-1.96443"
       id="path4525"
       inkscape:connector-curvature="0" />
    <ellipse
       id="path4527"
       cx="23.71349"
       cy="235.33087"
       rx="1.4499372"
       ry="1.3797789"
       style="stroke-width:0.26458332" />
    <ellipse
       id="path4527-3"
       cx="41.486912"
       cy="235.26073"
       rx="1.4499372"
       ry="1.3797789"
       style="stroke-width:0.26458332" />
  </g>
</svg>
